<svg xmlns="http://www.w3.org/2000/svg" width="38.055" height="38.029" viewBox="0 0 38.055 38.029">
  <g id="angel" transform="translate(0 -0.5)">
    <path id="Path_1" data-name="Path 1" d="M19.027,99.335c-.267-.089-2.548-1.426-3.751-.758-.424.223-1.337.111-2.317,8.133-.624,5.014-4.479,7.806-8.177,10.3L1.372,119.33l1.76-3.8a32.26,32.26,0,0,0,1.716-4.211l2.384-4.568L5.16,108.114a5,5,0,0,0-1.136-1.827l-.29-3.521-1.649,1.047a13.845,13.845,0,0,1-1.471-3.142A9.739,9.739,0,0,1,2.33,90.823a9.208,9.208,0,0,1,8.735-2.83c2.028.446,5.578,1.961,7.962,7C19.053,94.936,19.053,99.344,19.027,99.335Z" transform="translate(0 -80.801)" fill="#bb4e47"/>
    <path id="Path_2" data-name="Path 2" d="M269.866,108.115l-2.072-1.359,2.384,4.568a32.291,32.291,0,0,0,1.716,4.211l1.761,3.8-3.409-2.317c-3.7-2.5-7.554-5.289-8.177-10.3-.335-2.718-.735-7.286-2.318-8.133-1.092-.6-2.971.4-3.751.757V94.991c2.384-5.036,5.935-6.551,7.962-7a9.208,9.208,0,0,1,8.735,2.83,9.739,9.739,0,0,1,1.716,9.849,13.851,13.851,0,0,1-1.471,3.142l-1.849-2.028-.089,4.5a4.992,4.992,0,0,0-1.136,1.827Zm0,0" transform="translate(-236.972 -80.802)" fill="#ede9e8"/>
    <path id="Path_3" data-name="Path 3" d="M157.947.5c-3.877,0-7.873,1.1-7.873,3.417s4,3.342,7.873,3.342,7.873-1.025,7.873-3.342S161.824.5,157.947.5Zm0,4.531c-3.075,0-5.021-.691-5.534-1.114.513-.424,2.459-1.188,5.534-1.188s5.021.765,5.534,1.188C162.968,4.34,161.022,5.031,157.947,5.031Zm0,0" transform="translate(-138.92)" fill="#ffd400"/>
    <path id="Path_4" data-name="Path 4" d="M68.9,259.024l.037-.3a51.9,51.9,0,0,1,.828-5.293l-2.17-.5a53.625,53.625,0,0,0-.869,5.525l-.037.3a3.818,3.818,0,0,1-1.163,2.225,5.631,5.631,0,0,1-.311,3.213C67.485,262.477,68.648,261.094,68.9,259.024Zm0,0" transform="translate(-60.372 -233.664)" fill="#a4332c"/>
    <path id="Path_5" data-name="Path 5" d="M389.806,260.976a3.816,3.816,0,0,1-1.163-2.223l-.037-.3a53.523,53.523,0,0,0-.869-5.526l-2.169.5a51.989,51.989,0,0,1,.828,5.293l.037.3c.254,2.063,1.462,3.473,3.682,5.158A5.621,5.621,0,0,1,389.806,260.976Zm0,0" transform="translate(-356.909 -233.664)" fill="#dfd7d5"/>
    <path id="Path_6" data-name="Path 6" d="M30.927,253.866l-2.187-.429c-.242,1.236-.411,2.481-.568,3.712a18,18,0,0,0,1.739,2.257l.182.209c.043-.337.094-.651.136-.994.192-1.571.392-3.2.7-4.756Zm0,0" transform="translate(-26.078 -234.137)" fill="#a4332c"/>
    <path id="Path_7" data-name="Path 7" d="M443.973,239.845a55.457,55.457,0,0,1,.905,5.721c.042.343.091.665.134,1l.184-.211a18,18,0,0,0,1.737-2.253,47.548,47.548,0,0,0-.79-4.764Zm0,0" transform="translate(-410.974 -221.088)" fill="#dfd7d5"/>
    <path id="Path_8" data-name="Path 8" d="M263.873,3.917c0,2.317-4,3.342-7.873,3.342V5.031c3.075,0,5.021-.691,5.534-1.114-.513-.424-2.459-1.188-5.534-1.188V.5C259.877.5,263.873,1.6,263.873,3.917Zm0,0" transform="translate(-236.973)" fill="#fdbf00"/>
  </g>
</svg>
