<svg xmlns="http://www.w3.org/2000/svg" xmlns:xlink="http://www.w3.org/1999/xlink" width="128" height="38" viewBox="0 0 128 38">
  <defs>
    <clipPath id="clip-custom_1">
      <rect width="128" height="38"/>
    </clipPath>
  </defs>
  <g id="custom_1" data-name="custom – 1" clip-path="url(#clip-custom_1)">
    <rect width="128" height="38" fill="#fff"/>
    <rect id="Rectangle_1" data-name="Rectangle 1" width="128" height="38" fill="rgba(184,29,23,0.7)"/>
    <g id="angel" transform="translate(0 -0.5)">
      <path id="Path_1" data-name="Path 1" d="M19.027,99.335c-.267-.089-2.548-1.426-3.751-.758-.424.223-1.337.111-2.317,8.133-.624,5.014-4.479,7.806-8.177,10.3L1.372,119.33l1.76-3.8a32.26,32.26,0,0,0,1.716-4.211l2.384-4.568L5.16,108.114a5,5,0,0,0-1.136-1.827l-.29-3.521-1.649,1.047a13.845,13.845,0,0,1-1.471-3.142A9.739,9.739,0,0,1,2.33,90.823a9.208,9.208,0,0,1,8.735-2.83c2.028.446,5.578,1.961,7.962,7C19.053,94.936,19.053,99.344,19.027,99.335Z" transform="translate(0 -80.801)" fill="#bb4e47"/>
      <path id="Path_2" data-name="Path 2" d="M269.866,108.115l-2.072-1.359,2.384,4.568a32.291,32.291,0,0,0,1.716,4.211l1.761,3.8-3.409-2.317c-3.7-2.5-7.554-5.289-8.177-10.3-.335-2.718-.735-7.286-2.318-8.133-1.092-.6-2.971.4-3.751.757V94.991c2.384-5.036,5.935-6.551,7.962-7a9.208,9.208,0,0,1,8.735,2.83,9.739,9.739,0,0,1,1.716,9.849,13.851,13.851,0,0,1-1.471,3.142l-1.849-2.028-.089,4.5a4.992,4.992,0,0,0-1.136,1.827Zm0,0" transform="translate(-236.972 -80.802)" fill="#ede9e8"/>
      <path id="Path_3" data-name="Path 3" d="M157.947.5c-3.877,0-7.873,1.1-7.873,3.417s4,3.342,7.873,3.342,7.873-1.025,7.873-3.342S161.824.5,157.947.5Zm0,4.531c-3.075,0-5.021-.691-5.534-1.114.513-.424,2.459-1.188,5.534-1.188s5.021.765,5.534,1.188C162.968,4.34,161.022,5.031,157.947,5.031Zm0,0" transform="translate(-138.92)" fill="#ffd400"/>
      <path id="Path_4" data-name="Path 4" d="M68.9,259.024l.037-.3a51.9,51.9,0,0,1,.828-5.293l-2.17-.5a53.625,53.625,0,0,0-.869,5.525l-.037.3a3.818,3.818,0,0,1-1.163,2.225,5.631,5.631,0,0,1-.311,3.213C67.485,262.477,68.648,261.094,68.9,259.024Zm0,0" transform="translate(-60.372 -233.664)" fill="#a4332c"/>
      <path id="Path_5" data-name="Path 5" d="M389.806,260.976a3.816,3.816,0,0,1-1.163-2.223l-.037-.3a53.523,53.523,0,0,0-.869-5.526l-2.169.5a51.989,51.989,0,0,1,.828,5.293l.037.3c.254,2.063,1.462,3.473,3.682,5.158A5.621,5.621,0,0,1,389.806,260.976Zm0,0" transform="translate(-356.909 -233.664)" fill="#dfd7d5"/>
      <path id="Path_6" data-name="Path 6" d="M30.927,253.866l-2.187-.429c-.242,1.236-.411,2.481-.568,3.712a18,18,0,0,0,1.739,2.257l.182.209c.043-.337.094-.651.136-.994.192-1.571.392-3.2.7-4.756Zm0,0" transform="translate(-26.078 -234.137)" fill="#a4332c"/>
      <path id="Path_7" data-name="Path 7" d="M443.973,239.845a55.457,55.457,0,0,1,.905,5.721c.042.343.091.665.134,1l.184-.211a18,18,0,0,0,1.737-2.253,47.548,47.548,0,0,0-.79-4.764Zm0,0" transform="translate(-410.974 -221.088)" fill="#dfd7d5"/>
      <path id="Path_8" data-name="Path 8" d="M263.873,3.917c0,2.317-4,3.342-7.873,3.342V5.031c3.075,0,5.021-.691,5.534-1.114-.513-.424-2.459-1.188-5.534-1.188V.5C259.877.5,263.873,1.6,263.873,3.917Zm0,0" transform="translate(-236.973)" fill="#fdbf00"/>
    </g>
    <path id="Path_9" data-name="Path 9" d="M9.141,0,8.691-3.018H3.564L1.875,0H-.312L8.057-14.5h.518L11.406,0ZM7.607-10.566,4.336-4.453h4.15ZM15.5-1.66H20.7L20.41,0H12.295V-.488L18.711-8.8H13.35l.293-1.66h8.164v.527Zm10.557-12.9a1.259,1.259,0,0,1,.918.376,1.246,1.246,0,0,1,.381.923,1.235,1.235,0,0,1-.381.913,1.259,1.259,0,0,1-.918.376,1.259,1.259,0,0,1-.918-.376,1.235,1.235,0,0,1-.381-.913,1.246,1.246,0,0,1,.381-.923A1.259,1.259,0,0,1,26.055-14.561ZM23.057,0l1.582-8.9H23.252l.342-1.533h3.193L24.941,0ZM36.982,0l-.449-3.018H31.406L29.717,0H27.529L35.9-14.5h.518L39.248,0ZM35.449-10.566,32.178-4.453h4.15ZM47.168,0l1.094-6.084a7.841,7.841,0,0,0,.146-1.348q0-1.66-1.729-1.66a3.115,3.115,0,0,0-1.421.391,3.841,3.841,0,0,0-1.206.928L42.7,0H40.82l1.406-7.93a3.714,3.714,0,0,0,.049-.645A6.454,6.454,0,0,0,42.07-10.3l1.8-.352q.264,1.426.254,1.553a4.072,4.072,0,0,1,3.438-1.553q2.832,0,2.832,2.891a7.417,7.417,0,0,1-.127,1.289L49.141,0Zm3.691,2.93.879-1.367a6.978,6.978,0,0,0,2.959.9,4.371,4.371,0,0,0,2.148-.479A1.475,1.475,0,0,0,57.705.645a.942.942,0,0,0-.288-.708,1.858,1.858,0,0,0-.981-.4L54.717-.752q-1.045-.264-1.045-1.064,0-.645,1.67-1.3l-.332.01A2.768,2.768,0,0,1,53-3.96a2.787,2.787,0,0,1-.864-2.056A4.481,4.481,0,0,1,53.457-9.36a4.609,4.609,0,0,1,3.369-1.294,3.538,3.538,0,0,1,2.324.7l.879-1,1.025,1.055-.967,1.006a2.211,2.211,0,0,1,.283,1.26,4.859,4.859,0,0,1-.85,2.881A4.49,4.49,0,0,1,57.3-3.062q-1.372.483-1.372.9,0,.342.371.342A2.744,2.744,0,0,0,56.7-1.86a2.744,2.744,0,0,1,.405-.044Q59.551-1.9,59.551.3a3.184,3.184,0,0,1-1.538,2.764A6.394,6.394,0,0,1,54.355,4.1,5.136,5.136,0,0,1,50.859,2.93Zm5.83-12.09a2.416,2.416,0,0,0-1.89.874,3.018,3.018,0,0,0-.767,2.056q0,2.129,1.611,2.129a2.429,2.429,0,0,0,1.934-1.069,3.616,3.616,0,0,0,.84-2.271A1.686,1.686,0,0,0,57.949-8.7,1.712,1.712,0,0,0,56.689-9.16Zm7.373,4.219a4.877,4.877,0,0,0-.088.9A2.619,2.619,0,0,0,64.7-2.061a2.8,2.8,0,0,0,2.021.693,3.954,3.954,0,0,0,2.324-.85l-.2,1.895A8.937,8.937,0,0,1,66.084.2q-4.043,0-4.043-4.531a6.348,6.348,0,0,1,1.7-4.492,5.6,5.6,0,0,1,4.277-1.826,4.178,4.178,0,0,1,2.48.664A2.19,2.19,0,0,1,71.426-8.1,3.1,3.1,0,0,1,69.98-5.4a6.141,6.141,0,0,1-3.545.986A4.9,4.9,0,0,1,64.063-4.941Zm.322-1.348a4.251,4.251,0,0,0,1.748.332,5.476,5.476,0,0,0,2.49-.493,1.555,1.555,0,0,0,.967-1.44q0-1.2-1.66-1.2Q65.4-9.092,64.385-6.289ZM76.543-1.172,76.328.2q-3.135,0-3.135-2.324a21.448,21.448,0,0,1,.488-3.135l1.875-9.482H77.49L75.7-5.84a25.356,25.356,0,0,0-.557,3.477Q75.146-1.172,76.543-1.172Z" transform="translate(47 26.5)" fill="#ede9e8"/>
  </g>
</svg>
