<svg data-v-1084b650="" xmlns="http://www.w3.org/2000/svg" viewBox="0 0 300 300"><!----> <!----> <rect data-v-1084b650="" fill="#BB4E47" x="0" y="0" width="300px" height="300px" class="logo-background-square"></rect> <!----> <g data-v-1084b650="" id="b086c585-bf34-2ad1-02b0-2d06da8b4a2d" fill="#ECEEF0" transform="matrix(3.6999999999999993,0,0,3.6999999999999993,130.08481594920158,110.89099221229554)"><path d="M4.83 6.57C4.80 6.86 4.56 7.08 4.27 7.08C3.98 7.08 3.72 6.86 3.71 6.57L3.71 6.52C3.71 6.20 3.58 5.89 3.37 5.67C3.16 5.45 2.90 5.33 2.62 5.33C2.34 5.33 2.07 5.45 1.88 5.67C1.65 5.89 1.54 6.20 1.54 6.52L1.54 6.57C1.51 6.86 1.27 7.08 0.98 7.08C0.69 7.08 0.45 6.86 0.42 6.57L0.42 6.52C0.42 5.25 1.41 4.21 2.62 4.21C3.84 4.21 4.83 5.25 4.83 6.52ZM4.83 13.44C4.83 13.75 4.58 14 4.27 14C3.96 14 3.71 13.75 3.71 13.44L3.71 10.58L1.54 10.58L1.54 13.44C1.54 13.75 1.29 14 0.98 14C0.67 14 0.42 13.75 0.42 13.44L0.42 7.10C0.56 7.24 0.76 7.32 0.98 7.32C1.20 7.32 1.40 7.24 1.54 7.10L1.54 9.46L3.71 9.46L3.71 7.10C3.85 7.24 4.05 7.32 4.27 7.32C4.48 7.32 4.68 7.24 4.83 7.10ZM5.67 7.21C5.67 6.90 5.92 6.65 6.23 6.65L9.91 6.65C10.11 6.65 10.30 6.76 10.40 6.93C10.50 7.11 10.50 7.32 10.39 7.49L8.97 9.91C8.92 9.72 8.79 9.53 8.61 9.42C8.48 9.35 8.34 9.31 8.19 9.31C8.13 9.31 8.06 9.32 8.01 9.34L8.93 7.77L6.23 7.77C5.92 7.77 5.67 7.52 5.67 7.21ZM6.23 14C6.03 14 5.85 13.89 5.75 13.72C5.64 13.54 5.66 13.33 5.75 13.16L7.71 9.83C7.87 9.56 8.22 9.48 8.48 9.63C8.75 9.79 8.83 10.14 8.68 10.40L7.21 12.88L9.91 12.88C10.22 12.88 10.47 13.13 10.47 13.44C10.47 13.75 10.22 14 9.91 14ZM12.43 5.32C12.43 5.64 12.18 5.89 11.87 5.89C11.56 5.89 11.31 5.64 11.31 5.32C11.31 5.01 11.56 4.76 11.87 4.76C12.18 4.76 12.43 5.01 12.43 5.32ZM12.43 8.99C12.29 8.85 12.10 8.76 11.87 8.76C11.66 8.76 11.45 8.85 11.31 8.99L11.31 7.21C11.31 6.90 11.56 6.65 11.87 6.65C12.18 6.65 12.43 6.90 12.43 7.21ZM12.43 9.56L12.43 13.44C12.43 13.75 12.18 14 11.87 14C11.56 14 11.31 13.75 11.31 13.44L11.31 9.56L11.31 9.51C11.34 9.23 11.58 9.00 11.87 9.00C12.17 9.00 12.40 9.23 12.43 9.51ZM17.68 6.57C17.65 6.86 17.42 7.08 17.12 7.08C16.83 7.08 16.58 6.86 16.56 6.57L16.56 6.52C16.56 6.20 16.44 5.89 16.23 5.67C16.02 5.45 15.75 5.33 15.47 5.33C15.19 5.33 14.92 5.45 14.73 5.67C14.50 5.89 14.39 6.20 14.39 6.52L14.39 6.57C14.36 6.86 14.13 7.08 13.83 7.08C13.54 7.08 13.30 6.86 13.27 6.57L13.27 6.52C13.27 5.25 14.27 4.21 15.47 4.21C16.69 4.21 17.68 5.25 17.68 6.52ZM17.68 13.44C17.68 13.75 17.43 14 17.12 14C16.81 14 16.56 13.75 16.56 13.44L16.56 10.58L14.39 10.58L14.39 13.44C14.39 13.75 14.14 14 13.83 14C13.52 14 13.27 13.75 13.27 13.44L13.27 7.10C13.41 7.24 13.61 7.32 13.83 7.32C14.06 7.32 14.25 7.24 14.39 7.10L14.39 9.46L16.56 9.46L16.56 7.10C16.70 7.24 16.90 7.32 17.12 7.32C17.33 7.32 17.53 7.24 17.68 7.10ZM22.93 9.02C22.90 9.31 22.67 9.53 22.37 9.53C22.06 9.53 21.83 9.31 21.81 9.02L21.81 8.97C21.81 8.65 21.69 8.34 21.48 8.12C21.27 7.91 21 7.78 20.72 7.78C20.44 7.78 20.17 7.91 19.98 8.12C19.75 8.34 19.64 8.65 19.64 8.97C19.64 9.28 19.39 9.53 19.08 9.53C18.77 9.53 18.52 9.28 18.52 8.97C18.52 7.70 19.52 6.66 20.72 6.66C21.94 6.66 22.93 7.70 22.93 8.97ZM19.08 9.77C19.31 9.77 19.50 9.69 19.64 9.55L19.64 13.44C19.64 13.75 19.39 14 19.08 14C18.77 14 18.52 13.75 18.52 13.44L18.52 9.55C18.66 9.69 18.86 9.77 19.08 9.77ZM22.93 13.44C22.93 13.75 22.68 14 22.37 14C22.06 14 21.81 13.75 21.81 13.44L21.81 9.55C21.95 9.69 22.15 9.77 22.37 9.77C22.58 9.77 22.78 9.69 22.93 9.55ZM28.18 11.12C28.03 10.98 27.83 10.89 27.62 10.89C27.40 10.89 27.20 10.98 27.06 11.12L27.06 8.96C27.06 8.64 26.94 8.33 26.73 8.11C26.52 7.90 26.25 7.77 25.97 7.77C25.69 7.77 25.42 7.90 25.23 8.11C25.00 8.33 24.89 8.64 24.89 8.96L24.89 11.12C24.75 10.98 24.56 10.89 24.33 10.89C24.11 10.89 23.91 10.98 23.77 11.12L23.77 8.96C23.77 7.69 24.77 6.65 25.97 6.65C27.19 6.65 28.18 7.69 28.18 8.96ZM25.97 14C24.77 14 23.77 12.96 23.77 11.69C23.77 11.38 24.02 11.13 24.33 11.13C24.64 11.13 24.89 11.38 24.89 11.69C24.89 12.01 25.00 12.32 25.23 12.54C25.42 12.77 25.69 12.88 25.97 12.88C26.25 12.88 26.52 12.77 26.73 12.54C26.94 12.32 27.06 12.01 27.06 11.69C27.06 11.38 27.31 11.13 27.62 11.13C27.93 11.13 28.18 11.38 28.18 11.69C28.18 12.96 27.19 14 25.97 14ZM28.18 14.62C28.18 15.89 27.19 16.93 25.97 16.93C25.38 16.93 24.84 16.73 24.44 16.38C24.01 16.00 23.77 15.46 23.77 14.84C23.77 14.52 24.02 14.28 24.33 14.28C24.64 14.28 24.89 14.52 24.89 14.84C24.89 15.13 24.99 15.37 25.19 15.54C25.38 15.71 25.66 15.81 25.97 15.81C26.25 15.81 26.52 15.68 26.73 15.47C26.94 15.23 27.06 14.94 27.06 14.62L27.06 13.97C27.55 13.72 27.94 13.30 28.18 12.78ZM30.14 11.12C30.00 10.98 29.81 10.89 29.58 10.89C29.37 10.89 29.16 10.98 29.02 11.12L29.02 4.79C29.02 4.48 29.27 4.23 29.58 4.23C29.89 4.23 30.14 4.48 30.14 4.79ZM29.58 11.13C29.89 11.13 30.14 11.38 30.14 11.69C30.14 12.01 30.27 12.32 30.48 12.54C30.67 12.77 30.94 12.88 31.22 12.88C31.53 12.88 31.82 12.74 32.03 12.47C32.23 12.24 32.58 12.21 32.82 12.40C33.07 12.60 33.10 12.95 32.90 13.19C32.48 13.71 31.88 14 31.22 14C30.02 14 29.02 12.96 29.02 11.69C29.02 11.38 29.27 11.13 29.58 11.13ZM37.79 8.96C37.79 9.03 37.77 9.09 37.76 9.14C37.69 9.37 37.46 9.52 37.23 9.52C36.92 9.52 36.67 9.27 36.67 8.96C36.67 8.93 36.67 8.90 36.65 8.88C36.64 8.58 36.53 8.32 36.33 8.11C36.12 7.90 35.85 7.77 35.57 7.77C35.29 7.77 35.03 7.90 34.83 8.11C34.64 8.32 34.52 8.58 34.50 8.88L34.50 8.96C34.50 9.27 34.24 9.52 33.94 9.52C33.68 9.52 33.47 9.37 33.40 9.14C33.39 9.09 33.38 9.03 33.38 8.96L33.38 8.88C33.38 8.78 33.39 8.69 33.40 8.60C33.57 7.50 34.48 6.65 35.57 6.65C36.68 6.65 37.59 7.50 37.76 8.60C37.77 8.69 37.77 8.78 37.79 8.88ZM37.79 11.91C37.79 12.53 37.55 13.08 37.11 13.45C36.71 13.80 36.16 14 35.57 14C34.37 14 33.38 12.96 33.38 11.69L33.38 9.53C33.43 9.58 33.49 9.63 33.54 9.66C33.66 9.73 33.80 9.76 33.94 9.76C34.16 9.76 34.36 9.67 34.50 9.53C34.55 9.48 34.59 9.42 34.64 9.35C34.68 9.45 34.75 9.55 34.83 9.63C35.03 9.84 35.29 9.97 35.57 9.97C35.85 9.97 36.12 9.84 36.33 9.63C36.41 9.55 36.47 9.45 36.53 9.35C36.67 9.60 36.92 9.76 37.23 9.76C37.37 9.76 37.49 9.73 37.62 9.66C37.28 10.50 36.50 11.09 35.57 11.09C35.18 11.09 34.82 10.98 34.50 10.79L34.50 11.69C34.50 12.01 34.61 12.32 34.83 12.54C35.03 12.75 35.29 12.88 35.57 12.88C35.90 12.88 36.18 12.78 36.37 12.61C36.57 12.45 36.67 12.21 36.67 11.91C36.67 11.61 36.92 11.35 37.23 11.35C37.53 11.35 37.79 11.61 37.79 11.91Z"></path></g> <!----> <g data-v-1084b650="" id="6679abd2-4a81-d66d-5d34-6ef55067875f" stroke="none" fill="#ECEEF0" transform="matrix(0.25673142227178514,0,0,0.25673142227178514,38.93283663448884,111.49028910761388)"><svg xmlns="http://www.w3.org/2000/svg" xmlns:xlink="http://www.w3.org/1999/xlink" version="1.1" x="0px" y="0px" viewBox="0 0 90 90" enable-background="new 0 0 90 90" xml:space="preserve"><g><path d="M35.961,34.795c0,0,2.566-1.149,0-4.982c0,0-3.934-1.917-4.447-7.09S30.146,3.943,21.251,7.777   C12.357,11.609,8.937,37.479,6.884,53.958c-2.052,16.48-3.079,25.773-6.157,32.289c0,0,3.934-4.408,7.013-9.101   c3.078-4.696,1.796-7.667,4.617-10.158c2.822-2.49,2.309-8.143,3.848-8.336c1.54-0.19,2.309-2.011,3.166-4.502   c0.856-2.491,0.769,5.652,4.447-5.653c0,0,0.941,8.336,3.165-1.82c2.224-10.157,3.506,3.161,4.618-1.533   C32.712,40.448,35.961,34.795,35.961,34.795z"></path><path fill="#000000" d="M53.771,34.795c0,0-2.565-1.149,0-4.982c0,0,3.935-1.917,4.447-7.09s1.367-18.78,10.264-14.947   c8.895,3.832,12.314,29.702,14.367,46.181c2.053,16.48,3.079,25.773,6.157,32.289c0,0-3.935-4.408-7.013-9.101   c-3.078-4.696-1.796-7.667-4.617-10.158c-2.824-2.49-2.311-8.143-3.851-8.336c-1.538-0.19-2.309-2.011-3.163-4.502   c-0.855-2.491-0.77,5.652-4.447-5.653c0,0-0.94,8.336-3.165-1.82c-2.224-10.157-3.506,3.161-4.617-1.533   C57.021,40.448,53.771,34.795,53.771,34.795z"></path></g><path fill="#000000" d="M44.867,3.753c-6.676,0-12.088,1.43-12.088,3.194c0,1.764,5.412,3.194,12.088,3.194  c6.674,0,12.086-1.43,12.086-3.194C56.953,5.183,51.541,3.753,44.867,3.753z M44.867,9.454c-5.239,0-9.487-1.122-9.487-2.506  c0-1.385,4.248-2.507,9.487-2.507c5.237,0,9.484,1.122,9.484,2.507C54.352,8.332,50.104,9.454,44.867,9.454z"></path></svg></g></svg>