<?xml version="1.0" standalone="no"?><!-- Generator: Gravit.io --><svg xmlns="http://www.w3.org/2000/svg" xmlns:xlink="http://www.w3.org/1999/xlink" style="isolation:isolate" viewBox="0 0 375 114" width="375" height="114"><defs><clipPath id="_clipPath_XLKKoBjWyz1xxRUfwIYuGRqIU3tRGVbE"><rect width="375" height="114"/></clipPath></defs><g clip-path="url(#_clipPath_XLKKoBjWyz1xxRUfwIYuGRqIU3tRGVbE)"><g><g><path d=" M 178.265 33.068 C 178.086 34.799 176.653 36.112 174.922 36.112 C 173.191 36.112 171.639 34.799 171.58 33.068 L 171.58 32.769 C 171.58 30.859 170.804 29.009 169.55 27.696 C 168.297 26.383 166.745 25.666 165.073 25.666 C 163.402 25.666 161.79 26.383 160.656 27.696 C 159.284 29.009 158.627 30.859 158.627 32.769 L 158.627 33.068 C 158.448 34.799 157.015 36.112 155.284 36.112 C 153.553 36.112 152.121 34.799 151.942 33.068 L 151.942 32.769 C 151.942 25.189 157.851 18.981 165.073 18.981 C 172.355 18.981 178.265 25.189 178.265 32.769 L 178.265 33.068 Z  M 178.265 74.074 C 178.265 75.925 176.772 77.417 174.922 77.417 C 173.072 77.417 171.58 75.925 171.58 74.074 L 171.58 57.003 L 158.627 57.003 L 158.627 74.074 C 158.627 75.925 157.135 77.417 155.284 77.417 C 153.434 77.417 151.942 75.925 151.942 74.074 L 151.942 36.231 C 152.777 37.067 153.971 37.544 155.284 37.544 C 156.598 37.544 157.791 37.067 158.627 36.231 L 158.627 50.318 L 171.58 50.318 L 171.58 36.231 C 172.415 37.067 173.609 37.544 174.922 37.544 C 176.176 37.544 177.369 37.067 178.265 36.231 L 178.265 74.074 Z  M 183.279 36.888 C 183.279 35.038 184.771 33.545 186.621 33.545 L 208.587 33.545 C 209.781 33.545 210.915 34.202 211.512 35.217 C 212.108 36.291 212.108 37.544 211.452 38.559 L 202.976 53.004 C 202.678 51.87 201.902 50.736 200.827 50.079 C 200.051 49.661 199.216 49.423 198.32 49.423 C 197.962 49.423 197.544 49.482 197.246 49.602 L 202.737 40.23 L 186.621 40.23 C 184.771 40.23 183.279 38.738 183.279 36.888 Z  M 186.621 77.417 C 185.427 77.417 184.353 76.76 183.756 75.745 C 183.1 74.671 183.219 73.418 183.756 72.403 L 195.455 52.526 C 196.41 50.915 198.499 50.437 200.051 51.333 C 201.663 52.288 202.14 54.377 201.245 55.929 L 192.471 70.732 L 208.587 70.732 C 210.437 70.732 211.929 72.224 211.929 74.074 C 211.929 75.925 210.437 77.417 208.587 77.417 L 186.621 77.417 Z  M 223.628 25.607 C 223.628 27.517 222.136 29.009 220.286 29.009 C 218.435 29.009 216.943 27.517 216.943 25.607 C 216.943 23.756 218.435 22.264 220.286 22.264 C 222.136 22.264 223.628 23.756 223.628 25.607 Z  M 223.628 47.513 C 222.793 46.677 221.659 46.14 220.286 46.14 C 219.032 46.14 217.779 46.677 216.943 47.513 L 216.943 36.888 C 216.943 35.038 218.435 33.545 220.286 33.545 C 222.136 33.545 223.628 35.038 223.628 36.888 L 223.628 47.513 Z  M 223.628 50.915 L 223.628 74.074 C 223.628 75.925 222.136 77.417 220.286 77.417 C 218.435 77.417 216.943 75.925 216.943 74.074 L 216.943 50.915 L 216.943 50.616 C 217.122 48.945 218.555 47.572 220.286 47.572 C 222.076 47.572 223.449 48.945 223.628 50.616 L 223.628 50.915 Z  M 254.965 33.068 C 254.786 34.799 253.413 36.112 251.623 36.112 C 249.892 36.112 248.399 34.799 248.28 33.068 L 248.28 32.769 C 248.28 30.859 247.564 29.009 246.31 27.696 C 245.057 26.383 243.445 25.666 241.774 25.666 C 240.103 25.666 238.491 26.383 237.357 27.696 C 235.984 29.009 235.327 30.859 235.327 32.769 L 235.327 33.068 C 235.148 34.799 233.776 36.112 231.985 36.112 C 230.254 36.112 228.821 34.799 228.642 33.068 L 228.642 32.769 C 228.642 25.189 234.611 18.981 241.774 18.981 C 245.415 18.981 248.713 20.533 251.1 23.033 C 253.488 25.532 254.965 28.979 254.965 32.769 L 254.965 33.068 Z  M 254.965 74.074 C 254.965 75.925 253.473 77.417 251.623 77.417 C 249.772 77.417 248.28 75.925 248.28 74.074 L 248.28 57.003 L 235.327 57.003 L 235.327 74.074 C 235.327 75.925 233.835 77.417 231.985 77.417 C 230.135 77.417 228.642 75.925 228.642 74.074 L 228.642 36.231 C 229.478 37.067 230.672 37.544 231.985 37.544 C 233.358 37.544 234.492 37.067 235.327 36.231 L 235.327 50.318 L 248.28 50.318 L 248.28 36.231 C 249.116 37.067 250.309 37.544 251.623 37.544 C 252.876 37.544 254.07 37.067 254.965 36.231 L 254.965 74.074 Z  M 286.302 47.692 C 286.123 49.423 284.75 50.736 282.959 50.736 C 281.109 50.736 279.736 49.423 279.617 47.692 L 279.617 47.393 C 279.617 45.483 278.901 43.633 277.647 42.32 C 276.394 41.066 274.782 40.29 273.111 40.29 C 271.439 40.29 269.828 41.066 268.694 42.32 C 267.321 43.633 266.664 45.483 266.664 47.393 C 266.664 49.244 265.172 50.736 263.322 50.736 C 261.471 50.736 259.979 49.244 259.979 47.393 C 259.979 39.813 265.948 33.605 273.111 33.605 C 280.393 33.605 286.302 39.813 286.302 47.393 L 286.302 47.692 Z  M 263.322 52.168 C 264.695 52.168 265.829 51.691 266.664 50.855 L 266.664 74.074 C 266.664 75.925 265.172 77.417 263.322 77.417 C 261.471 77.417 259.979 75.925 259.979 74.074 L 259.979 50.855 C 260.815 51.691 262.009 52.168 263.322 52.168 Z  M 286.302 74.074 C 286.302 75.925 284.81 77.417 282.959 77.417 C 281.109 77.417 279.617 75.925 279.617 74.074 L 279.617 50.855 C 280.452 51.691 281.646 52.168 282.959 52.168 C 284.213 52.168 285.407 51.691 286.302 50.855 L 286.302 74.074 Z  M 317.639 60.226 C 316.743 59.391 315.55 58.853 314.296 58.853 C 312.983 58.853 311.789 59.391 310.954 60.226 L 310.954 47.333 C 310.954 45.423 310.237 43.573 308.984 42.26 C 307.73 41.006 306.119 40.23 304.447 40.23 C 302.776 40.23 301.165 41.006 300.03 42.26 C 298.658 43.573 298.001 45.423 298.001 47.333 L 298.001 60.226 C 297.165 59.391 296.031 58.853 294.658 58.853 C 293.345 58.853 292.152 59.391 291.316 60.226 L 291.316 47.333 C 291.316 39.753 297.285 33.545 304.447 33.545 C 311.73 33.545 317.639 39.753 317.639 47.333 L 317.639 60.226 Z  M 304.447 77.417 C 297.285 77.417 291.316 71.209 291.316 63.629 C 291.316 61.778 292.808 60.286 294.658 60.286 C 296.509 60.286 298.001 61.778 298.001 63.629 C 298.001 65.539 298.658 67.389 300.03 68.702 C 301.165 70.075 302.776 70.732 304.447 70.732 C 306.119 70.732 307.73 70.075 308.984 68.702 C 310.237 67.389 310.954 65.539 310.954 63.629 C 310.954 61.778 312.446 60.286 314.296 60.286 C 316.147 60.286 317.639 61.778 317.639 63.629 C 317.639 71.209 311.73 77.417 304.447 77.417 Z  M 317.639 81.118 C 317.639 88.698 311.73 94.906 304.447 94.906 C 300.926 94.906 297.703 93.712 295.315 91.623 C 292.748 89.355 291.316 86.131 291.316 82.431 C 291.316 80.521 292.808 79.088 294.658 79.088 C 296.509 79.088 298.001 80.521 298.001 82.431 C 298.001 84.162 298.598 85.594 299.792 86.609 C 300.926 87.624 302.597 88.221 304.447 88.221 C 306.119 88.221 307.73 87.445 308.984 86.191 C 310.237 84.759 310.954 83.028 310.954 81.118 L 310.954 77.238 C 313.878 75.745 316.206 73.239 317.639 70.135 L 317.639 81.118 Z  M 329.338 60.226 C 328.502 59.391 327.368 58.853 325.995 58.853 C 324.742 58.853 323.488 59.391 322.653 60.226 L 322.653 22.443 C 322.653 20.593 324.145 19.101 325.995 19.101 C 327.846 19.101 329.338 20.593 329.338 22.443 L 329.338 60.226 Z  M 325.995 60.286 C 327.846 60.286 329.338 61.778 329.338 63.629 C 329.338 65.539 330.114 67.389 331.367 68.702 C 332.501 70.075 334.113 70.732 335.784 70.732 C 337.635 70.732 339.366 69.896 340.619 68.284 C 341.813 66.911 343.902 66.732 345.335 67.867 C 346.827 69.06 347.006 71.149 345.812 72.582 C 343.305 75.686 339.724 77.417 335.784 77.417 C 328.622 77.417 322.653 71.209 322.653 63.629 C 322.653 61.778 324.145 60.286 325.995 60.286 Z  M 375 47.333 C 375 47.751 374.881 48.109 374.821 48.408 C 374.403 49.781 373.03 50.676 371.657 50.676 C 369.807 50.676 368.315 49.184 368.315 47.333 C 368.315 47.154 368.315 46.975 368.195 46.856 C 368.136 45.065 367.479 43.513 366.285 42.26 C 365.032 41.006 363.42 40.23 361.749 40.23 C 360.078 40.23 358.526 41.006 357.332 42.26 C 356.198 43.513 355.482 45.065 355.362 46.856 L 355.362 47.333 C 355.362 49.184 353.81 50.676 352.02 50.676 C 350.468 50.676 349.214 49.781 348.796 48.408 C 348.737 48.109 348.677 47.751 348.677 47.333 L 348.677 46.856 C 348.677 46.259 348.737 45.722 348.796 45.185 C 349.811 38.619 355.243 33.545 361.749 33.545 C 368.375 33.545 373.806 38.619 374.821 45.185 C 374.881 45.722 374.881 46.259 375 46.856 L 375 47.333 Z  M 375 64.942 C 375 68.642 373.567 71.925 370.941 74.134 C 368.554 76.223 365.271 77.417 361.749 77.417 C 354.586 77.417 348.677 71.209 348.677 63.629 L 348.677 50.736 C 348.976 51.034 349.334 51.333 349.632 51.512 C 350.348 51.93 351.184 52.109 352.02 52.109 C 353.333 52.109 354.527 51.571 355.362 50.736 C 355.661 50.437 355.899 50.079 356.198 49.661 C 356.437 50.258 356.855 50.855 357.332 51.333 C 358.526 52.586 360.078 53.362 361.749 53.362 C 363.42 53.362 365.032 52.586 366.285 51.333 C 366.763 50.855 367.121 50.258 367.479 49.661 C 368.315 51.154 369.807 52.109 371.657 52.109 C 372.493 52.109 373.209 51.93 373.985 51.512 C 371.956 56.526 367.3 60.047 361.749 60.047 C 359.421 60.047 357.272 59.391 355.362 58.257 L 355.362 63.629 C 355.362 65.539 356.019 67.389 357.332 68.702 C 358.526 69.956 360.078 70.732 361.749 70.732 C 363.719 70.732 365.39 70.135 366.524 69.12 C 367.718 68.165 368.315 66.732 368.315 64.942 C 368.315 63.151 369.807 61.599 371.657 61.599 C 373.448 61.599 375 63.151 375 64.942 Z " fill="rgb(236,238,240)"/></g><g><g><g><path d=" M 48.642 42.855 C 48.642 42.855 52.185 41.269 48.642 35.977 C 48.642 35.977 43.211 33.331 42.503 26.189 C 41.795 19.047 40.614 0.262 28.334 5.555 C 16.056 10.846 11.334 46.56 8.5 69.31 C 5.667 92.062 4.249 104.891 0 113.887 C 0 113.887 5.431 107.801 9.682 101.322 C 13.931 94.839 12.161 90.738 16.056 87.299 C 19.952 83.861 19.243 76.057 21.368 75.791 C 23.494 75.528 24.556 73.014 25.739 69.575 C 26.921 66.136 26.801 77.378 31.878 61.771 C 31.878 61.771 33.177 73.279 36.248 59.259 C 39.318 45.236 41.088 63.623 42.623 57.142 C 44.157 50.659 48.642 42.855 48.642 42.855 Z " fill="rgb(184,29,23)"/><path d=" M 73.23 42.855 C 73.23 42.855 69.689 41.269 73.23 35.977 C 73.23 35.977 78.662 33.331 79.369 26.189 C 80.076 19.047 81.256 0.262 93.539 5.554 C 105.819 10.844 110.539 46.559 113.373 69.309 C 116.208 92.06 117.624 104.89 121.873 113.885 C 121.873 113.885 116.441 107.8 112.192 101.321 C 107.942 94.838 109.712 90.736 105.818 87.298 C 101.919 83.86 102.627 76.056 100.501 75.789 C 98.378 75.527 97.313 73.013 96.134 69.574 C 94.954 66.135 95.071 77.377 89.995 61.77 C 89.995 61.77 88.697 73.278 85.626 59.257 C 82.555 45.235 80.785 63.621 79.252 57.141 C 77.717 50.659 73.23 42.855 73.23 42.855 Z " fill="rgb(236,238,240)"/></g><path d=" M 60.937 0 C 51.721 0 44.249 1.974 44.249 4.409 C 44.249 6.845 51.721 8.819 60.937 8.819 C 70.151 8.819 77.623 6.845 77.623 4.409 C 77.623 1.974 70.151 0 60.937 0 Z  M 60.937 7.87 C 53.705 7.87 47.84 6.322 47.84 4.411 C 47.84 2.499 53.705 0.95 60.937 0.95 C 68.167 0.95 74.03 2.499 74.03 4.411 C 74.032 6.322 68.167 7.87 60.937 7.87 Z " fill="rgb(255,247,0)"/></g></g></g></g></svg>